<svg width="67" height="82" viewBox="0 0 67 82" fill="none" xmlns="http://www.w3.org/2000/svg">
<path d="M33.7295 62.1299C50.8862 62.1299 64.7945 48.2216 64.7945 31.0649C64.7945 13.9082 50.8862 0 33.7295 0C16.5729 0 2.66461 13.9082 2.66461 31.0649C2.66461 48.2216 16.5729 62.1299 33.7295 62.1299Z" fill="#FCC71C"/>
<path d="M62.707 36.5903C59.6373 52.5525 44.289 63.1121 28.3268 60.0425C12.2418 56.9728 1.80496 41.5018 4.87461 25.5395C7.94427 9.57732 23.2926 -0.859514 39.2548 2.21014C55.3398 5.15701 65.7766 20.6281 62.707 36.5903Z" fill="#182552"/>
<path d="M40.4828 11.5421C45.7626 13.2611 49.9373 17.0675 52.2703 21.8561C54.6032 26.522 55.0943 32.0474 53.3753 37.45L53.2525 37.5728C51.5335 42.8526 47.7272 47.0273 43.1841 49.3603C38.5182 51.5704 32.9928 52.0616 27.713 50.4653H27.5902C22.3104 48.6235 18.1357 44.8172 15.8027 40.1513C14.2065 36.9588 13.4698 33.2753 13.7154 29.5917C13.7154 29.5917 13.7154 29.5917 13.7154 29.4689C14.3293 14.8573 28.2041 7.49012 40.36 11.5421H40.4828ZM51.6563 22.1017C49.3234 17.5586 45.3942 13.875 40.2372 12.156H40.1144C35.0802 10.437 29.0636 11.0509 25.0117 13.1383C18.504 16.5763 14.5749 22.4701 14.4521 29.4689V29.5917C14.3293 30.2056 14.3293 30.8195 14.3293 31.4335C14.3293 31.9246 14.0837 32.6613 14.2065 33.1525C14.4521 35.6082 15.3116 37.6956 16.4167 39.7829C18.7496 44.326 22.6788 48.0096 27.8358 49.7286H27.9586C31.6422 51.0793 35.5713 51.202 39.1321 50.2198C40.4828 49.8514 41.8334 49.483 43.0613 48.8691C45.6398 47.6412 47.7272 45.4311 49.569 43.0982C50.9196 41.3791 51.9019 39.4146 52.6386 37.3272V37.2044C54.3576 32.0474 53.8665 26.6448 51.6563 22.1017Z" fill="#FCC71C"/>
<path fill-rule="evenodd" clip-rule="evenodd" d="M34.8346 51.4478L43.3068 48.6237L48.0955 44.9401L51.0424 39.5375L51.2879 24.0664V15.103L43.3068 14.4891L36.0624 13.8752C34.589 13.7524 24.275 12.5245 19.7319 16.9448C16.2938 20.3828 14.5748 24.6804 14.4521 29.3462C14.4521 30.8197 14.3293 32.5387 14.3293 34.3805C14.3293 34.5033 14.3293 34.5033 14.3293 34.5033L14.2065 48.7465L34.8346 51.4478Z" fill="#FEFEFE"/>
<path fill-rule="evenodd" clip-rule="evenodd" d="M35.6939 20.7511L38.7636 23.5752C38.8863 21.2423 41.0965 18.7865 45.1484 19.8916C42.5699 21.4878 42.4472 24.3119 45.6396 24.9259C45.1484 26.2765 43.5522 27.136 42.6927 27.0132L38.7636 23.5752L45.2712 29.3462C44.9029 29.3462 44.4117 29.3462 44.0434 29.3462L35.2028 21.3651L35.6939 20.7511Z" fill="#FEFEFE"/>
<path fill-rule="evenodd" clip-rule="evenodd" d="M23.6612 49.9744L29.0638 50.8339L36.5538 51.2023L40.1146 50.4655L44.4121 48.501L49.4463 42.8528L51.4109 37.6958L51.0426 20.9968L45.7627 23.4526L40.4829 26.645L27.5904 38.4325L22.4333 47.3959V47.5187L23.6612 49.9744Z" fill="#D1D3E1"/>
<path fill-rule="evenodd" clip-rule="evenodd" d="M51.2879 15.3487L51.7791 22.4703L52.2702 22.2247C53.6209 19.5234 54.9715 16.6993 56.4449 13.998C52.393 13.0158 48.8322 12.893 44.1663 13.3841L44.0435 14.1208L51.2879 15.3487Z" fill="#FECB1C"/>
<path fill-rule="evenodd" clip-rule="evenodd" d="M36.6764 14.3661L50.9196 15.4712L50.6741 36.3449C50.5513 41.5019 48.0955 44.326 47.3588 45.1855C43.4297 49.2374 38.3954 50.9564 32.0105 50.5881C24.3978 49.9742 16.6622 48.7463 14.3293 48.5007C14.3293 42.7298 14.4521 34.3803 14.4521 29.4688L13.7154 31.1878L13.5926 49.2374L28.9409 51.0792C31.765 51.3248 34.2207 51.4476 36.7992 51.202C41.7107 50.5881 44.6575 48.8691 48.0955 45.4311C49.0778 44.4488 49.569 43.3437 50.0601 42.3614C50.7968 40.888 51.4108 38.8006 51.4108 36.836V25.7852L51.5336 23.5751L52.3931 21.9789L51.4108 20.8738C52.8842 17.5586 52.7614 14.8573 49.6918 14.3661C48.955 14.8573 47.3588 15.2256 46.131 14.4889L44.2892 13.3838C43.3069 13.5066 41.7107 13.7522 40.7284 13.9978L30.046 13.261C28.4497 13.0155 25.8712 12.8927 24.5206 13.261L21.3281 15.1028L19.4863 17.1902C24.6434 13.261 30.7827 14.1206 36.6764 14.3661Z" fill="#FCC71C"/>
<path fill-rule="evenodd" clip-rule="evenodd" d="M55.4626 14.3661C54.6031 14.2433 53.7436 14.1205 52.6385 13.9978H52.393C52.2702 13.9978 52.0246 13.9978 51.9018 13.875H51.5335H51.4107C44.1663 13.3838 38.8865 15.3484 38.8865 15.3484C31.7649 17.8041 26.7306 22.7156 24.2749 30.3283C23.7838 31.9246 22.4331 37.6955 24.7661 38.0639C26.3623 34.1347 28.9408 30.4511 32.1332 27.2587C35.9396 23.3295 40.2371 20.0143 45.5169 18.2953C46.4992 17.9269 46.9904 17.8041 48.0955 17.6813L47.6043 20.1371C47.6043 19.8915 46.7448 18.6636 46.4992 18.7864C43.6751 19.7687 42.9384 20.1371 40.4827 21.8561C36.5535 24.803 33.1155 28.3638 30.1686 32.2929C28.4496 34.6259 21.328 45.1855 22.4331 47.5184C23.661 45.4311 25.1344 43.4665 27.3446 42.1158L27.9585 41.7475C30.0459 41.0107 32.256 40.3968 34.2206 39.5373C37.0447 38.4322 39.6232 37.0816 41.8333 35.2398C43.5524 34.1347 46.622 30.8195 47.6043 29.2233V29.1005C48.341 28.1182 48.955 27.1359 49.6917 25.908C47.7271 26.1536 46.0081 25.7852 44.4119 24.9257C44.4119 24.9257 50.4284 24.3118 51.2879 22.47C51.4107 22.3472 51.4107 22.2244 51.5335 22.1017C52.7613 19.5231 54.112 16.9446 55.4626 14.3661Z" fill="#182552"/>
<path d="M32.0107 14.7339C26.7309 14.3656 22.4334 15.3479 19.3637 18.2947C18.1358 19.5226 17.0308 21.2416 16.4168 22.9606C15.4345 25.6619 15.189 27.3809 15.0662 29.8367V47.2723C16.6624 47.8863 21.0827 49.4825 26.4853 50.0964C22.4334 49.6053 18.3814 48.9913 14.3295 48.5002C14.3295 42.3609 14.4523 35.6076 14.4523 29.3455C14.4523 27.0126 14.9434 24.6796 15.8029 22.5923C16.1713 21.61 16.7852 20.5049 17.5219 19.3998C18.0131 18.6631 18.7498 17.8036 19.4865 17.1897C23.0473 14.3656 27.0992 13.7517 31.8879 13.9972L47.9729 15.2251L48.7096 15.9618L32.0107 14.7339Z" fill="#182552"/>
<path d="M8.16895 69.0469H8.53809V79H8.16895V69.6758L1.73633 79H1.36719V69.0469H1.73633V78.3506L8.16895 69.0469ZM13.5967 78.7676C14.2666 78.7676 14.818 78.5898 15.251 78.2344C15.6885 77.8789 15.9277 77.3867 15.9688 76.7578H16.3379C16.3014 77.4733 16.0257 78.0498 15.5107 78.4873C14.9958 78.9202 14.3577 79.1367 13.5967 79.1367C12.6715 79.1367 11.9355 78.8018 11.3887 78.1318C10.8464 77.4619 10.5752 76.5527 10.5752 75.4043V75.1582C10.5752 74.0371 10.8464 73.1416 11.3887 72.4717C11.9355 71.8018 12.667 71.4668 13.583 71.4668C14.3669 71.4668 15.014 71.7015 15.5244 72.1709C16.0348 72.6403 16.306 73.2646 16.3379 74.0439H15.9688C15.9368 73.3786 15.7021 72.8454 15.2646 72.4443C14.8317 72.0387 14.2712 71.8359 13.583 71.8359C12.7581 71.8359 12.111 72.1344 11.6416 72.7314C11.1768 73.3239 10.9443 74.1488 10.9443 75.2061V75.4453C10.9443 76.4798 11.179 77.2933 11.6484 77.8857C12.1224 78.4736 12.7718 78.7676 13.5967 78.7676ZM19.9199 75.3838H18.5664V79H18.1904V71.6035H18.5664V75.0215H19.9883L22.9209 71.6035H23.4541L20.3096 75.2266L23.8848 79H23.3311L19.9199 75.3838ZM27.4053 78.4258L27.4531 78.2891L30.0098 71.6035H30.4199L27.1113 80.2852L26.9473 80.6953C26.5918 81.5566 26.0039 81.9873 25.1836 81.9873C24.9193 81.9873 24.737 81.9622 24.6367 81.9121L24.6299 81.5635C24.7757 81.6045 24.9421 81.625 25.1289 81.625C25.5163 81.625 25.8376 81.5111 26.0928 81.2832C26.348 81.0599 26.569 80.693 26.7559 80.1826L27.207 78.959L24.2607 71.6035H24.6641L27.4053 78.4258ZM34.2412 78.7676C34.9111 78.7676 35.4626 78.5898 35.8955 78.2344C36.333 77.8789 36.5723 77.3867 36.6133 76.7578H36.9824C36.946 77.4733 36.6702 78.0498 36.1553 78.4873C35.6403 78.9202 35.0023 79.1367 34.2412 79.1367C33.3161 79.1367 32.5801 78.8018 32.0332 78.1318C31.4909 77.4619 31.2197 76.5527 31.2197 75.4043V75.1582C31.2197 74.0371 31.4909 73.1416 32.0332 72.4717C32.5801 71.8018 33.3115 71.4668 34.2275 71.4668C35.0114 71.4668 35.6585 71.7015 36.1689 72.1709C36.6794 72.6403 36.9505 73.2646 36.9824 74.0439H36.6133C36.5814 73.3786 36.3467 72.8454 35.9092 72.4443C35.4762 72.0387 34.9157 71.8359 34.2275 71.8359C33.4027 71.8359 32.7555 72.1344 32.2861 72.7314C31.8213 73.3239 31.5889 74.1488 31.5889 75.2061V75.4453C31.5889 76.4798 31.8236 77.2933 32.293 77.8857C32.7669 78.4736 33.4163 78.7676 34.2412 78.7676ZM41.3506 78.7676C42.0205 78.7676 42.5719 78.5898 43.0049 78.2344C43.4424 77.8789 43.6816 77.3867 43.7227 76.7578H44.0918C44.0553 77.4733 43.7796 78.0498 43.2646 78.4873C42.7497 78.9202 42.1117 79.1367 41.3506 79.1367C40.4255 79.1367 39.6895 78.8018 39.1426 78.1318C38.6003 77.4619 38.3291 76.5527 38.3291 75.4043V75.1582C38.3291 74.0371 38.6003 73.1416 39.1426 72.4717C39.6895 71.8018 40.4209 71.4668 41.3369 71.4668C42.1208 71.4668 42.7679 71.7015 43.2783 72.1709C43.7887 72.6403 44.0599 73.2646 44.0918 74.0439H43.7227C43.6908 73.3786 43.4561 72.8454 43.0186 72.4443C42.5856 72.0387 42.0251 71.8359 41.3369 71.8359C40.512 71.8359 39.8649 72.1344 39.3955 72.7314C38.9307 73.3239 38.6982 74.1488 38.6982 75.2061V75.4453C38.6982 76.4798 38.9329 77.2933 39.4023 77.8857C39.8763 78.4736 40.5257 78.7676 41.3506 78.7676ZM51.0781 71.9795H48.1729V79H47.8037V71.9795H45.0488V71.6035H51.0781V71.9795ZM52.5889 79V71.6035H55.1318C56.0296 71.6035 56.7155 71.7676 57.1895 72.0957C57.668 72.4193 57.9072 72.8932 57.9072 73.5176C57.9072 73.9277 57.7796 74.2855 57.5244 74.5908C57.2738 74.8962 56.9137 75.1012 56.4443 75.2061H56.4512C56.9525 75.2607 57.374 75.4567 57.7158 75.7939C58.0576 76.1312 58.2285 76.5322 58.2285 76.9971C58.2285 77.6305 57.9938 78.1227 57.5244 78.4736C57.0596 78.8245 56.4079 79 55.5693 79H52.5889ZM52.958 75.4385V78.6309H55.6035C56.3099 78.6309 56.8636 78.4896 57.2646 78.207C57.6657 77.9245 57.8662 77.5234 57.8662 77.0039C57.8662 76.5391 57.6611 76.1631 57.251 75.876C56.8454 75.5843 56.2894 75.4385 55.583 75.4385H52.958ZM52.958 75.0693H55.2686C56.016 75.0693 56.5811 74.9372 56.9639 74.6729C57.3467 74.4085 57.5381 74.0166 57.5381 73.4971C57.5381 72.9684 57.333 72.5833 56.9229 72.3418C56.5127 72.1003 55.9157 71.9795 55.1318 71.9795H52.958V75.0693ZM59.6367 75.1582C59.6367 74.4518 59.7712 73.8184 60.04 73.2578C60.3135 72.6927 60.6963 72.2529 61.1885 71.9385C61.6852 71.624 62.2458 71.4668 62.8701 71.4668C63.4899 71.4668 64.0459 71.6195 64.5381 71.9248C65.0303 72.2301 65.4131 72.6631 65.6865 73.2236C65.9645 73.7842 66.1058 74.4154 66.1104 75.1172V75.4453C66.1104 76.1562 65.9759 76.792 65.707 77.3525C65.4382 77.9131 65.0553 78.3506 64.5586 78.665C64.0664 78.9795 63.5081 79.1367 62.8838 79.1367C62.2594 79.1367 61.6989 78.9818 61.2021 78.6719C60.71 78.362 60.3271 77.929 60.0537 77.373C59.7803 76.8125 59.6413 76.1836 59.6367 75.4863V75.1582ZM60.0059 75.4453C60.0059 76.0605 60.1266 76.6257 60.3682 77.1406C60.6143 77.651 60.9538 78.0498 61.3867 78.3369C61.8242 78.624 62.3232 78.7676 62.8838 78.7676C63.7269 78.7676 64.4128 78.4508 64.9414 77.8174C65.4746 77.1839 65.7412 76.3682 65.7412 75.3701V75.1582C65.7412 74.5521 65.6182 73.9915 65.3721 73.4766C65.126 72.9616 64.7842 72.5605 64.3467 72.2734C63.9137 71.9818 63.4215 71.8359 62.8701 71.8359C62.027 71.8359 61.3389 72.1572 60.8057 72.7998C60.2725 73.4424 60.0059 74.2513 60.0059 75.2266V75.4453Z" fill="black"/>
</svg>
