<svg width="63" height="63" viewBox="0 0 63 63" fill="none" xmlns="http://www.w3.org/2000/svg">
<path d="M31.7295 62.1299C48.8862 62.1299 62.7945 48.2216 62.7945 31.0649C62.7945 13.9082 48.8862 0 31.7295 0C14.5729 0 0.664612 13.9082 0.664612 31.0649C0.664612 48.2216 14.5729 62.1299 31.7295 62.1299Z" fill="#FCC71C"/>
<path d="M60.707 36.5903C57.6373 52.5525 42.289 63.1121 26.3268 60.0425C10.2418 56.9728 -0.195043 41.5018 2.87461 25.5395C5.94427 9.57732 21.2926 -0.859515 37.2548 2.21014C53.3398 5.15701 63.7766 20.6281 60.707 36.5903Z" fill="#182552"/>
<path d="M38.4828 11.5421C43.7626 13.2611 47.9373 17.0675 50.2703 21.8561C52.6032 26.522 53.0943 32.0474 51.3753 37.45L51.2525 37.5728C49.5335 42.8526 45.7272 47.0273 41.1841 49.3603C36.5182 51.5704 30.9928 52.0616 25.713 50.4653H25.5902C20.3104 48.6235 16.1357 44.8172 13.8027 40.1513C12.2065 36.9588 11.4698 33.2753 11.7154 29.5917C11.7154 29.5917 11.7154 29.5917 11.7154 29.4689C12.3293 14.8573 26.2041 7.49013 38.36 11.5421H38.4828ZM49.6563 22.1017C47.3234 17.5586 43.3942 13.875 38.2372 12.156H38.1144C33.0802 10.437 27.0636 11.0509 23.0117 13.1383C16.504 16.5763 12.5749 22.4701 12.4521 29.4689V29.5917C12.3293 30.2056 12.3293 30.8195 12.3293 31.4335C12.3293 31.9246 12.0837 32.6613 12.2065 33.1525C12.4521 35.6082 13.3116 37.6956 14.4167 39.7829C16.7496 44.326 20.6788 48.0096 25.8358 49.7286H25.9586C29.6422 51.0793 33.5713 51.202 37.1321 50.2198C38.4828 49.8514 39.8334 49.483 41.0613 48.8691C43.6398 47.6412 45.7272 45.4311 47.569 43.0982C48.9196 41.3791 49.9019 39.4146 50.6386 37.3272V37.2044C52.3576 32.0474 51.8665 26.6448 49.6563 22.1017Z" fill="#FCC71C"/>
<path fill-rule="evenodd" clip-rule="evenodd" d="M32.8346 51.4478L41.3068 48.6237L46.0955 44.9401L49.0424 39.5375L49.2879 24.0664V15.103L41.3068 14.4891L34.0624 13.8752C32.589 13.7524 22.275 12.5245 17.7319 16.9448C14.2938 20.3828 12.5748 24.6804 12.4521 29.3462C12.4521 30.8197 12.3293 32.5387 12.3293 34.3805C12.3293 34.5033 12.3293 34.5033 12.3293 34.5033L12.2065 48.7465L32.8346 51.4478Z" fill="#FEFEFE"/>
<path fill-rule="evenodd" clip-rule="evenodd" d="M33.6939 20.7511L36.7636 23.5752C36.8863 21.2423 39.0965 18.7865 43.1484 19.8916C40.5699 21.4878 40.4472 24.3119 43.6396 24.9259C43.1484 26.2765 41.5522 27.136 40.6927 27.0132L36.7636 23.5752L43.2712 29.3462C42.9029 29.3462 42.4117 29.3462 42.0434 29.3462L33.2028 21.3651L33.6939 20.7511Z" fill="#FEFEFE"/>
<path fill-rule="evenodd" clip-rule="evenodd" d="M21.6612 49.9744L27.0638 50.8339L34.5538 51.2023L38.1146 50.4655L42.4121 48.501L47.4463 42.8528L49.4109 37.6958L49.0426 20.9968L43.7627 23.4526L38.4829 26.645L25.5904 38.4325L20.4333 47.3959V47.5187L21.6612 49.9744Z" fill="#D1D3E1"/>
<path fill-rule="evenodd" clip-rule="evenodd" d="M49.2879 15.3487L49.7791 22.4703L50.2702 22.2247C51.6209 19.5234 52.9715 16.6993 54.4449 13.998C50.393 13.0158 46.8322 12.893 42.1663 13.3841L42.0435 14.1208L49.2879 15.3487Z" fill="#FECB1C"/>
<path fill-rule="evenodd" clip-rule="evenodd" d="M34.6764 14.3661L48.9196 15.4712L48.6741 36.3449C48.5513 41.5019 46.0955 44.326 45.3588 45.1855C41.4297 49.2374 36.3954 50.9564 30.0105 50.5881C22.3978 49.9742 14.6622 48.7463 12.3293 48.5007C12.3293 42.7298 12.4521 34.3803 12.4521 29.4688L11.7154 31.1878L11.5926 49.2374L26.9409 51.0792C29.765 51.3248 32.2207 51.4476 34.7992 51.202C39.7107 50.5881 42.6575 48.8691 46.0955 45.4311C47.0778 44.4488 47.569 43.3437 48.0601 42.3614C48.7968 40.888 49.4108 38.8006 49.4108 36.836V25.7852L49.5336 23.5751L50.3931 21.9789L49.4108 20.8738C50.8842 17.5586 50.7614 14.8573 47.6918 14.3661C46.955 14.8573 45.3588 15.2256 44.131 14.4889L42.2892 13.3838C41.3069 13.5066 39.7107 13.7522 38.7284 13.9978L28.046 13.261C26.4497 13.0155 23.8712 12.8927 22.5206 13.261L19.3281 15.1028L17.4863 17.1902C22.6434 13.261 28.7827 14.1206 34.6764 14.3661Z" fill="#FCC71C"/>
<path fill-rule="evenodd" clip-rule="evenodd" d="M53.4626 14.3661C52.6031 14.2433 51.7436 14.1205 50.6385 13.9978H50.393C50.2702 13.9978 50.0246 13.9978 49.9018 13.875H49.5335H49.4107C42.1663 13.3838 36.8865 15.3484 36.8865 15.3484C29.7649 17.8041 24.7306 22.7156 22.2749 30.3283C21.7838 31.9246 20.4331 37.6955 22.7661 38.0639C24.3623 34.1347 26.9408 30.4511 30.1332 27.2587C33.9396 23.3295 38.2371 20.0143 43.5169 18.2953C44.4992 17.9269 44.9904 17.8041 46.0955 17.6813L45.6043 20.1371C45.6043 19.8915 44.7448 18.6636 44.4992 18.7864C41.6751 19.7687 40.9384 20.1371 38.4827 21.8561C34.5535 24.803 31.1155 28.3638 28.1686 32.2929C26.4496 34.6259 19.328 45.1855 20.4331 47.5184C21.661 45.4311 23.1344 43.4665 25.3446 42.1158L25.9585 41.7475C28.0459 41.0107 30.256 40.3968 32.2206 39.5373C35.0447 38.4322 37.6232 37.0816 39.8333 35.2398C41.5524 34.1347 44.622 30.8195 45.6043 29.2233V29.1005C46.341 28.1182 46.955 27.1359 47.6917 25.908C45.7271 26.1536 44.0081 25.7852 42.4119 24.9257C42.4119 24.9257 48.4284 24.3118 49.2879 22.47C49.4107 22.3472 49.4107 22.2244 49.5335 22.1017C50.7613 19.5231 52.112 16.9446 53.4626 14.3661Z" fill="#182552"/>
<path d="M30.0107 14.7339C24.7309 14.3656 20.4334 15.3479 17.3637 18.2947C16.1358 19.5226 15.0308 21.2416 14.4168 22.9606C13.4345 25.6619 13.189 27.3809 13.0662 29.8367V47.2723C14.6624 47.8863 19.0827 49.4825 24.4853 50.0964C20.4334 49.6053 16.3814 48.9913 12.3295 48.5002C12.3295 42.3609 12.4523 35.6076 12.4523 29.3455C12.4523 27.0126 12.9434 24.6796 13.8029 22.5923C14.1713 21.61 14.7852 20.5049 15.5219 19.3998C16.0131 18.6631 16.7498 17.8036 17.4865 17.1897C21.0473 14.3656 25.0992 13.7517 29.8879 13.9972L45.9729 15.2251L46.7096 15.9618L30.0107 14.7339Z" fill="#182552"/>
</svg>
