<svg width="63" height="63" viewBox="0 0 63 63" fill="none" xmlns="http://www.w3.org/2000/svg">
<path d="M31.065 62.13C48.2217 62.13 62.13 48.2217 62.13 31.065C62.13 13.9083 48.2217 0 31.065 0C13.9083 0 0 13.9083 0 31.065C0 48.2217 13.9083 62.13 31.065 62.13Z" fill="#FCC71C"/>
<path d="M60.0428 36.5907C56.9731 52.553 41.6248 63.1126 25.6625 60.043C9.5775 56.9733 -0.859355 41.5022 2.21031 25.54C5.27997 9.5777 20.6283 -0.859155 36.5905 2.21051C52.6756 5.15739 63.1124 20.6285 60.0428 36.5907Z" fill="#182552"/>
<path d="M37.8183 11.5421C43.0981 13.2611 47.2728 17.0675 49.6058 21.8562C51.9387 26.522 52.4299 32.0474 50.7109 37.45L50.5881 37.5728C48.8691 42.8527 45.0627 47.0274 40.5196 49.3603C35.8537 51.5705 30.3283 52.0616 25.0485 50.4654H24.9257C19.6459 48.6236 15.4711 44.8172 13.1382 40.1514C11.542 36.9589 10.8052 33.2753 11.0508 29.5917C11.0508 29.5917 11.0508 29.5917 11.0508 29.4689C11.6647 14.8573 25.5396 7.49012 37.6955 11.5421H37.8183ZM48.9919 22.1017C46.6589 17.5586 42.7297 13.875 37.5727 12.156H37.4499C32.4157 10.437 26.3991 11.0509 22.3472 13.1383C15.8395 16.5763 11.9103 22.4701 11.7875 29.4689V29.5917C11.6647 30.2056 11.6647 30.8196 11.6647 31.4335C11.6647 31.9247 11.4192 32.6614 11.542 33.1525C11.7875 35.6082 12.647 37.6956 13.7521 39.783C16.0851 44.3261 20.0142 48.0097 25.1713 49.7287H25.294C28.9776 51.0794 32.9068 51.2021 36.4676 50.2198C37.8183 49.8515 39.1689 49.4831 40.3968 48.8692C42.9753 47.6413 45.0627 45.4312 46.9045 43.0982C48.2551 41.3792 49.2374 39.4146 49.9741 37.3273V37.2045C51.6932 32.0474 51.202 26.6448 48.9919 22.1017Z" fill="#FCC71C"/>
<path fill-rule="evenodd" clip-rule="evenodd" d="M32.1703 51.448L41.2565 49.115L45.7996 45.4314L48.992 38.5554L49.1148 24.0666L48.6237 15.1032L40.6425 14.4892L33.3981 13.8753C31.9247 13.7525 21.6106 12.5246 17.0675 16.945C13.6295 20.383 11.9105 24.6805 11.7877 29.3464C11.7877 30.8198 11.6649 32.5388 11.6649 34.3806C11.6649 34.5034 11.6649 34.5034 11.6649 34.5034L11.5421 48.7467L32.1703 51.448Z" fill="#FEFEFE"/>
<path fill-rule="evenodd" clip-rule="evenodd" d="M24.1892 50.5876L32.7843 50.8332L37.5729 50.4648L42.3616 47.7635L44.3262 46.0445L47.2731 43.0976L48.8693 37.8178L48.9921 31.6785L48.3781 17.0669L43.2211 18.5403L39.4147 24.1885L17.5587 29.4683L22.8385 41.1331L30.2057 40.028L19.5233 41.6242L24.1892 50.5876Z" fill="#D1D3E1"/>
<path fill-rule="evenodd" clip-rule="evenodd" d="M45.3079 14.9802L44.3256 14.8574L51.57 11.051L48.5003 19.6461L48.6231 17.4359L50.4649 12.2789L45.3079 14.9802Z" fill="#FEFEFE"/>
<path fill-rule="evenodd" clip-rule="evenodd" d="M33.398 14.2435L48.5008 15.2258L48.378 36.2223C48.2552 41.3793 45.7995 44.3262 44.94 45.1857C41.0108 49.3604 35.9766 51.0794 29.5917 50.7111C21.8561 49.9744 13.9978 48.7465 11.6648 48.5009C11.6648 42.6072 11.7876 34.2577 11.7876 29.3462L11.0509 31.0652L10.9281 49.2376L26.3992 51.0794C29.2233 51.4478 31.8018 51.5706 34.3803 51.2022C39.2918 50.5883 42.2387 48.8693 45.7995 45.4313C46.659 44.449 47.1501 43.2211 47.6413 42.3616C48.5008 40.7654 49.1147 38.8008 49.1147 36.7134V17.9271L51.5705 11.051L45.1856 14.2435L27.5043 12.8928C25.9081 12.77 23.3295 12.6473 21.9789 13.0156L18.7864 14.8574L16.8219 17.1904C17.8041 16.3308 19.5232 15.3486 20.6282 14.9802C26.522 12.8928 32.0474 14.2435 33.398 14.2435Z" fill="#FCC71C"/>
<path d="M44.3263 15.5942C38.9237 15.2258 34.8717 14.8574 29.3463 14.4891C24.4348 14.2435 19.769 15.3486 16.6993 18.2955C15.4714 19.5233 14.3663 21.2423 13.7524 22.9613C12.7701 25.6627 12.5245 27.3817 12.4018 29.8374V47.2731C13.998 47.887 18.4183 49.4832 23.8209 50.0972C19.769 49.606 15.717 48.9921 11.665 48.5009C11.665 42.3616 11.7878 35.6084 11.7878 29.3462C11.7878 27.0133 12.279 24.6804 13.1385 22.593C13.5068 21.6107 14.1208 20.5056 14.8575 19.4005C15.3486 18.6638 16.0854 17.8043 16.8221 17.1904C20.3829 14.3663 24.6804 13.6296 29.2235 13.8751C30.4514 13.8751 33.0299 14.1207 36.4679 14.3663C39.4148 14.6119 42.8528 14.8574 45.3086 14.9802L46.0453 15.8397L44.3263 15.5942Z" fill="#182552"/>
<path fill-rule="evenodd" clip-rule="evenodd" d="M25.4168 46.9047L31.4333 39.7831C30.6966 38.5552 30.2054 37.2045 29.9599 35.8539C28.3636 35.7311 26.8902 35.4855 25.5396 34.9944L19.523 41.6249L25.4168 46.9047Z" fill="#182552"/>
<path fill-rule="evenodd" clip-rule="evenodd" d="M17.5587 29.4692L50.4655 12.2791L38.0641 46.7821C34.5033 43.0985 32.1703 39.0465 31.188 34.3806C26.031 34.0123 21.4879 32.2933 17.5587 29.4692Z" fill="#182552"/>
</svg>
