<svg width="63" height="63" viewBox="0 0 63 63" fill="none" xmlns="http://www.w3.org/2000/svg">
<path d="M31.065 62.13C48.2217 62.13 62.13 48.2217 62.13 31.065C62.13 13.9083 48.2217 0 31.065 0C13.9083 0 0 13.9083 0 31.065C0 48.2217 13.9083 62.13 31.065 62.13Z" fill="#FCC71C"/>
<path d="M60.0422 36.5907C56.9725 52.553 41.6242 63.1126 25.6619 60.043C9.57689 56.9733 -0.859965 41.5022 2.2097 25.54C5.27936 9.5777 20.6277 -0.859154 36.5899 2.21051C52.675 5.15739 63.1118 20.6285 60.0422 36.5907Z" fill="#182552"/>
<path d="M37.8182 11.5422C43.098 13.2612 47.2728 17.0676 49.6057 21.8563C51.9387 26.5222 52.4298 32.0476 50.7108 37.4502L50.588 37.573C48.869 42.8528 45.0626 47.0275 40.5195 49.3605C35.8536 51.5706 30.3282 52.0618 25.0484 50.4655H24.9256C19.6458 48.6237 15.4711 44.8174 13.1381 40.1515C11.5419 36.959 10.8052 33.2754 11.0507 29.5918C11.0507 29.5918 11.0507 29.5918 11.0507 29.469C11.6647 14.8574 25.5396 7.49025 37.6954 11.5422H37.8182ZM48.9918 22.1018C46.6588 17.5587 42.7297 13.8751 37.5726 12.1561H37.4499C32.4156 10.4371 26.3991 11.0511 22.3471 13.1384C15.8394 16.5765 11.9102 22.4702 11.7875 29.469V29.5918C11.6647 30.2058 11.6647 30.8197 11.6647 31.4336C11.6647 31.9248 11.4191 32.6615 11.5419 33.1526C11.7875 35.6084 12.647 37.6957 13.752 39.7831C16.085 44.3262 20.0142 48.0098 25.1712 49.7288H25.294C28.9776 51.0795 32.9068 51.2023 36.4676 50.22C37.8182 49.8516 39.1689 49.4832 40.3967 48.8693C42.9753 47.6414 45.0626 45.4313 46.9044 43.0983C48.2551 41.3793 49.2374 39.4147 49.9741 37.3274V37.2046C51.6931 32.0476 51.202 26.6449 48.9918 22.1018Z" fill="#FCC71C"/>
<path fill-rule="evenodd" clip-rule="evenodd" d="M32.1696 51.448L40.6419 48.6239L45.4305 44.9403L48.3774 39.5377L48.623 24.0666V15.1032L40.6419 14.4892L33.3974 13.8753C31.924 13.7525 21.6099 12.5246 17.0668 16.945C13.6288 20.383 11.9098 24.6805 11.787 29.3464C11.787 30.8198 11.6642 32.5388 11.6642 34.3806C11.6642 34.5034 11.6642 34.5034 11.6642 34.5034L11.5414 48.7467L32.1696 51.448Z" fill="#FEFEFE"/>
<path fill-rule="evenodd" clip-rule="evenodd" d="M20.1366 49.9746L25.1709 50.4657L31.3102 51.2024L35.3621 50.9568L40.028 49.4834L46.5357 43.958L47.8864 40.0288L48.2547 36.3452L48.5003 19.8918L35.6077 27.6274L23.5746 38.5554L18.7859 46.9049V47.0277L20.1366 49.9746Z" fill="#D1D3E1"/>
<path fill-rule="evenodd" clip-rule="evenodd" d="M34.0119 14.3665L48.2552 15.4716L48.0096 36.3453C47.8868 41.5024 45.4311 44.3265 44.6943 45.186C40.7652 49.2379 35.7309 50.9569 29.346 50.5886C21.7333 49.9746 13.9977 48.7468 11.6648 48.5012C11.6648 42.7302 11.7875 34.258 11.7875 29.4693L11.0508 31.1883L10.928 49.2379L26.2764 51.0797C29.1005 51.3253 31.5562 51.4481 34.1347 51.2025C39.0462 50.5886 41.993 48.8696 45.4311 45.4315C46.4134 44.4492 46.9045 43.3442 47.3956 42.3619C48.1324 40.8884 48.7463 38.8011 48.7463 36.8365V25.7857C48.9919 25.1717 49.483 23.4527 49.6058 22.716L48.6235 21.1198L48.7463 20.8742C50.4653 17.9273 52.1843 13.507 47.8868 10.3146C48.1324 12.1564 48.2552 13.3842 47.0273 14.3665C46.2906 14.8577 44.9399 14.6121 43.4665 14.4893L41.3791 14.2437L27.3814 13.2615C25.7852 13.0159 23.2067 12.8931 21.856 13.2615L18.6636 15.1033L16.9446 17.1906C22.1016 12.8931 28.1182 13.9982 34.0119 14.3665Z" fill="#FCC71C"/>
<path fill-rule="evenodd" clip-rule="evenodd" d="M47.2729 22.3467C47.3957 20.9961 48.378 21.1189 49.6059 17.1897C50.2198 15.3479 50.097 13.6289 48.5008 11.6643C48.8692 13.3833 48.0097 14.734 46.659 15.1023C45.1856 15.5935 41.502 14.4884 38.1867 15.3479C35.731 15.9618 33.0297 18.7859 33.7664 22.5923L31.4335 20.5049C30.6967 21.61 30.3284 23.8202 30.8195 25.2936L30.0828 24.6797L28.8549 26.1531L30.2056 27.381L18.6637 45.4306C18.1725 46.0445 18.5409 46.7813 18.9092 47.0268C19.4004 47.518 20.0143 47.518 20.5055 47.1496L37.0816 33.5203L38.3095 34.6254L39.6602 33.152L38.9234 32.538C40.6425 32.6608 42.3615 32.4152 43.7121 31.3102L41.3792 29.3456C46.1679 29.5911 48.6236 26.7671 48.9919 22.5923C48.1324 23.329 47.3957 23.329 47.2729 22.3467Z" fill="#182552"/>
<path fill-rule="evenodd" clip-rule="evenodd" d="M33.0295 20.7512L36.0991 23.5753C36.2219 21.2424 38.4321 18.7867 42.484 19.8917C39.9055 21.488 39.7827 24.3121 42.9752 24.926C42.484 26.2766 40.8878 27.1361 40.0283 27.0134L36.0991 23.5753L42.6068 29.3463C42.2385 29.3463 41.7473 29.3463 41.379 29.3463L32.5383 21.3652L33.0295 20.7512Z" fill="#FEFEFE"/>
<path d="M29.3455 14.7347C24.0657 14.3663 19.7682 15.3486 16.6985 18.2955C15.4706 19.5233 14.3655 21.2423 13.7516 22.9614C12.7693 25.6627 12.5238 27.3817 12.401 29.8374V47.2731C13.9972 47.887 18.4175 49.4833 23.8201 50.0972C19.7682 49.606 15.7162 48.9921 11.6642 48.501C11.6642 42.3616 11.787 35.6084 11.787 29.3463C11.787 27.0133 12.2782 24.6804 13.1377 22.593C13.506 21.6107 14.12 20.5056 14.8567 19.4005C15.3478 18.6638 16.0846 17.8043 16.8213 17.1904C20.3821 14.3663 24.5568 13.8752 29.0999 13.9979L45.4305 15.2258L46.0445 15.9625L29.3455 14.7347Z" fill="#182552"/>
</svg>
