<svg width="63" height="82" viewBox="0 0 63 82" fill="none" xmlns="http://www.w3.org/2000/svg">
<path d="M31.065 62.13C48.2217 62.13 62.13 48.2217 62.13 31.065C62.13 13.9083 48.2217 0 31.065 0C13.9083 0 0 13.9083 0 31.065C0 48.2217 13.9083 62.13 31.065 62.13Z" fill="#FCC71C"/>
<path d="M60.0422 36.5908C56.9725 52.5531 41.6242 63.1127 25.6619 60.0431C9.57689 56.9734 -0.859966 41.5023 2.2097 25.5401C5.27936 9.57782 20.6277 -0.859033 36.5899 2.21063C52.675 5.15751 63.1118 20.6286 60.0422 36.5908Z" fill="#182552"/>
<path d="M37.8182 11.5421C43.098 13.2611 47.2728 17.0675 49.6057 21.8562C51.9387 26.5221 52.4298 32.0475 50.7108 37.4501L50.588 37.5729C48.869 42.8527 45.0626 47.0274 40.5195 49.3604C35.8536 51.5705 30.3282 52.0617 25.0484 50.4654H24.9256C19.6458 48.6236 15.4711 44.8173 13.1381 40.1514C11.5419 36.9589 10.8052 33.2753 11.0507 29.5917C11.0507 29.5917 11.0507 29.5917 11.0507 29.4689C11.6647 14.8573 25.5396 7.49013 37.6954 11.5421H37.8182ZM48.9918 22.1017C46.6588 17.5586 42.7297 13.875 37.5726 12.156H37.4499C32.4156 10.437 26.3991 11.051 22.3471 13.1383C15.8394 16.5764 11.9102 22.4701 11.7875 29.4689V29.5917C11.6647 30.2057 11.6647 30.8196 11.6647 31.4335C11.6647 31.9247 11.4191 32.6614 11.5419 33.1525C11.7875 35.6083 12.647 37.6956 13.752 39.783C16.085 44.3261 20.0142 48.0097 25.1712 49.7287H25.294C28.9776 51.0794 32.9068 51.2022 36.4676 50.2199C37.8182 49.8515 39.1689 49.4831 40.3967 48.8692C42.9753 47.6413 45.0626 45.4312 46.9044 43.0982C48.2551 41.3792 49.2374 39.4146 49.9741 37.3273V37.2045C51.6931 32.0475 51.202 26.6448 48.9918 22.1017Z" fill="#FCC71C"/>
<path fill-rule="evenodd" clip-rule="evenodd" d="M32.1696 51.4479L40.6419 48.6238L45.4305 44.9402L48.3774 39.5376L48.623 24.0665V15.1031L40.6419 14.4891L33.3974 13.8752C31.924 13.7524 21.6099 12.5245 17.0668 16.9449C13.6288 20.3829 11.9098 24.6804 11.787 29.3463C11.787 30.8197 11.6642 32.5387 11.6642 34.3805C11.6642 34.5033 11.6642 34.5033 11.6642 34.5033L11.5414 48.7466L32.1696 51.4479Z" fill="#FEFEFE"/>
<path fill-rule="evenodd" clip-rule="evenodd" d="M20.1366 49.9746L25.1709 50.4657L31.3102 51.2024L35.3621 50.9568L40.028 49.4834L46.5357 43.958L47.8864 40.0288L48.2547 36.3452L48.5003 19.8918L35.6077 27.6274L23.5746 38.5554L18.7859 46.9049V47.0277L20.1366 49.9746Z" fill="#D1D3E1"/>
<path fill-rule="evenodd" clip-rule="evenodd" d="M34.0119 14.3666L48.2552 15.4717L48.0096 36.3454C47.8868 41.5025 45.4311 44.3266 44.6943 45.1861C40.7652 49.238 35.7309 50.957 29.346 50.5887C21.7333 49.9747 13.9977 48.7469 11.6648 48.5013C11.6648 42.7303 11.7875 34.2581 11.7875 29.4694L11.0508 31.1884L10.928 49.238L26.2764 51.0798C29.1005 51.3254 31.5562 51.4482 34.1347 51.2026C39.0462 50.5887 41.993 48.8697 45.4311 45.4316C46.4134 44.4493 46.9045 43.3443 47.3956 42.362C48.1324 40.8885 48.7463 38.8012 48.7463 36.8366V25.7858C48.9919 25.1718 49.483 23.4528 49.6058 22.7161L48.6235 21.1199L48.7463 20.8743C50.4653 17.9274 52.1843 13.5071 47.8868 10.3147C48.1324 12.1565 48.2552 13.3843 47.0273 14.3666C46.2906 14.8578 44.9399 14.6122 43.4665 14.4894L41.3791 14.2438L27.3814 13.2616C25.7852 13.016 23.2067 12.8932 21.856 13.2616L18.6636 15.1034L16.9446 17.1907C22.1016 12.8932 28.1182 13.9983 34.0119 14.3666Z" fill="#FCC71C"/>
<path fill-rule="evenodd" clip-rule="evenodd" d="M47.2729 22.3467C47.3957 20.9961 48.378 21.1189 49.6059 17.1897C50.2198 15.3479 50.097 13.6289 48.5008 11.6643C48.8692 13.3833 48.0097 14.734 46.659 15.1023C45.1856 15.5935 41.502 14.4884 38.1867 15.3479C35.731 15.9618 33.0297 18.7859 33.7664 22.5923L31.4335 20.5049C30.6967 21.61 30.3284 23.8202 30.8195 25.2936L30.0828 24.6797L28.8549 26.1531L30.2056 27.381L18.6637 45.4306C18.1725 46.0445 18.5409 46.7813 18.9092 47.0268C19.4004 47.518 20.0143 47.518 20.5055 47.1496L37.0816 33.5203L38.3095 34.6254L39.6602 33.152L38.9234 32.538C40.6425 32.6608 42.3615 32.4152 43.7121 31.3102L41.3792 29.3456C46.1679 29.5911 48.6236 26.7671 48.9919 22.5923C48.1324 23.329 47.3957 23.329 47.2729 22.3467Z" fill="#182552"/>
<path fill-rule="evenodd" clip-rule="evenodd" d="M33.0295 20.7511L36.0991 23.5752C36.2219 21.2423 38.4321 18.7866 42.484 19.8916C39.9055 21.4879 39.7827 24.312 42.9752 24.9259C42.484 26.2765 40.8878 27.136 40.0283 27.0133L36.0991 23.5752L42.6068 29.3462C42.2385 29.3462 41.7473 29.3462 41.379 29.3462L32.5383 21.3651L33.0295 20.7511Z" fill="#FEFEFE"/>
<path d="M29.3455 14.7347C24.0657 14.3663 19.7682 15.3486 16.6985 18.2955C15.4706 19.5233 14.3655 21.2423 13.7516 22.9614C12.7693 25.6627 12.5238 27.3817 12.401 29.8374V47.2731C13.9972 47.887 18.4175 49.4833 23.8201 50.0972C19.7682 49.606 15.7162 48.9921 11.6642 48.501C11.6642 42.3616 11.787 35.6084 11.787 29.3463C11.787 27.0133 12.2782 24.6804 13.1377 22.593C13.506 21.6107 14.12 20.5056 14.8567 19.4005C15.3478 18.6638 16.0846 17.8043 16.8213 17.1904C20.3821 14.3663 24.5568 13.8752 29.0999 13.9979L45.4305 15.2258L46.0445 15.9625L29.3455 14.7347Z" fill="#182552"/>
<path d="M20.1348 75.9512C20.0391 76.9766 19.6859 77.765 19.0752 78.3164C18.4645 78.8633 17.6351 79.1367 16.5869 79.1367C15.8805 79.1367 15.2539 78.959 14.707 78.6035C14.1647 78.2435 13.7432 77.7354 13.4424 77.0791C13.1416 76.4183 12.9889 75.6641 12.9844 74.8164V73.2783C12.9844 72.4307 13.1325 71.6742 13.4287 71.0088C13.7249 70.3389 14.1465 69.8216 14.6934 69.457C15.2448 69.0924 15.876 68.9102 16.5869 68.9102C17.626 68.9102 18.4531 69.1836 19.0684 69.7305C19.6836 70.2773 20.0391 71.0612 20.1348 72.082H19.7656C19.6608 71.166 19.3418 70.471 18.8086 69.9971C18.2754 69.5186 17.5348 69.2793 16.5869 69.2793C15.6208 69.2793 14.8392 69.6439 14.2422 70.373C13.6497 71.1022 13.3535 72.0798 13.3535 73.3057V74.7686C13.3535 75.5524 13.4857 76.2474 13.75 76.8535C14.0143 77.4551 14.3926 77.9245 14.8848 78.2617C15.3815 78.599 15.9489 78.7676 16.5869 78.7676C17.5394 78.7676 18.2822 78.5329 18.8154 78.0635C19.3532 77.5941 19.6699 76.89 19.7656 75.9512H20.1348ZM27.5723 79H27.1963V71.9795H22.623V79H22.2539V71.6035H27.5723V79ZM29.3633 75.1582C29.3633 74.4518 29.4977 73.8184 29.7666 73.2578C30.04 72.6927 30.4229 72.2529 30.915 71.9385C31.4118 71.624 31.9723 71.4668 32.5967 71.4668C33.2165 71.4668 33.7725 71.6195 34.2646 71.9248C34.7568 72.2301 35.1396 72.6631 35.4131 73.2236C35.6911 73.7842 35.8324 74.4154 35.8369 75.1172V75.4453C35.8369 76.1562 35.7025 76.792 35.4336 77.3525C35.1647 77.9131 34.7819 78.3506 34.2852 78.665C33.793 78.9795 33.2347 79.1367 32.6104 79.1367C31.986 79.1367 31.4255 78.9818 30.9287 78.6719C30.4365 78.362 30.0537 77.929 29.7803 77.373C29.5068 76.8125 29.3678 76.1836 29.3633 75.4863V75.1582ZM29.7324 75.4453C29.7324 76.0605 29.8532 76.6257 30.0947 77.1406C30.3408 77.651 30.6803 78.0498 31.1133 78.3369C31.5508 78.624 32.0498 78.7676 32.6104 78.7676C33.4535 78.7676 34.1393 78.4508 34.668 77.8174C35.2012 77.1839 35.4678 76.3682 35.4678 75.3701V75.1582C35.4678 74.5521 35.3447 73.9915 35.0986 73.4766C34.8525 72.9616 34.5107 72.5605 34.0732 72.2734C33.6403 71.9818 33.1481 71.8359 32.5967 71.8359C31.7536 71.8359 31.0654 72.1572 30.5322 72.7998C29.999 73.4424 29.7324 74.2513 29.7324 75.2266V75.4453ZM43.2881 75.3701C43.2881 76.5231 43.0397 77.4391 42.543 78.1182C42.0462 78.7972 41.3695 79.1367 40.5127 79.1367C39.9521 79.1367 39.4531 79.0228 39.0156 78.7949C38.5781 78.5671 38.2363 78.2526 37.9902 77.8516V81.8438H37.6211V71.6035H37.9902V72.9229C38.2454 72.4535 38.5895 72.0934 39.0225 71.8428C39.4554 71.5921 39.9476 71.4668 40.499 71.4668C41.3649 71.4668 42.0462 71.7995 42.543 72.4648C43.0397 73.1257 43.2881 74.0553 43.2881 75.2539V75.3701ZM42.9121 75.2266C42.9121 74.1647 42.7002 73.3353 42.2764 72.7383C41.8571 72.1367 41.2669 71.8359 40.5059 71.8359C39.8861 71.8359 39.3597 71.9977 38.9268 72.3213C38.4938 72.6403 38.1816 73.1006 37.9902 73.7021V77.1611C38.1816 77.6715 38.4938 78.068 38.9268 78.3506C39.3643 78.6286 39.8952 78.7676 40.5195 78.7676C41.276 78.7676 41.8639 78.4668 42.2832 77.8652C42.7025 77.2637 42.9121 76.3841 42.9121 75.2266ZM49.8848 71.9795H46.9795V79H46.6104V71.9795H43.8555V71.6035H49.8848V71.9795Z" fill="black"/>
</svg>
